####
#
# OBJ File Generated by Meshlab
#
####
# Object Plane_4^4_F81_2.obj
#
# Vertices: 100
# Faces: 81
#
####
vn 0.000000 0.000000 -0.861774
v -0.068184 -0.091195 0.000000
vn 0.000000 0.000000 -0.861774
v -0.058365 0.106537 0.000000
vn 0.000000 0.000000 -0.861774
v 0.068184 0.091195 0.000000
vn 0.000000 0.000000 -0.861774
v 0.058365 -0.106537 0.000000
vn 0.000000 0.000000 -0.861774
v 0.194732 0.075853 0.000000
vn 0.000000 0.000000 -0.861774
v 0.184913 -0.121879 0.000000
vn 0.000000 0.000000 -0.861774
v 0.048546 -0.304268 0.000000
vn 0.000000 0.000000 -0.861774
v -0.078002 -0.288926 0.000000
vn 0.000000 0.000000 -0.861774
v -0.194732 -0.075853 0.000000
vn 0.000000 0.000000 -0.861774
v -0.184913 0.121879 0.000000
vn 0.000000 0.000000 -0.861774
v -0.048546 0.304268 0.000000
vn 0.000000 0.000000 -0.861774
v 0.078003 0.288926 0.000000
vn 0.000000 0.000000 -0.861774
v 0.204550 0.273584 0.000000
vn 0.000000 0.000000 -0.861774
v 0.321279 0.060511 0.000000
vn 0.000000 0.000000 -0.861774
v 0.311460 -0.137221 0.000000
vn 0.000000 0.000000 -0.861774
v 0.175094 -0.319610 0.000000
vn 0.000000 0.000000 -0.861774
v -0.204550 -0.273584 0.000000
vn 0.000000 0.000000 -0.861774
v 0.038727 -0.501999 0.000000
vn 0.000000 0.000000 -0.861774
v -0.087821 -0.486657 0.000000
vn 0.000000 0.000000 -0.861774
v -0.175094 0.319610 0.000000
vn 0.000000 0.000000 -0.861774
v -0.321279 -0.060511 0.000000
vn 0.000000 0.000000 -0.861774
v -0.311460 0.137221 0.000000
vn 0.000000 0.000000 -0.861774
v -0.038727 0.501999 0.000000
vn 0.000000 0.000000 -0.861774
v 0.087821 0.486657 0.000000
vn 0.000000 0.000000 -0.861774
v 0.331098 0.258242 0.000000
vn 0.000000 0.000000 -0.861774
v 0.214369 0.471315 0.000000
vn 0.000000 0.000000 -0.861774
v 0.301642 -0.334952 0.000000
vn 0.000000 0.000000 -0.861774
v 0.447827 0.045169 0.000000
vn 0.000000 0.000000 -0.861774
v 0.438008 -0.152562 0.000000
vn 0.000000 0.000000 -0.861774
v 0.165275 -0.517341 0.000000
vn 0.000000 0.000000 -0.861774
v -0.214369 -0.471315 0.000000
vn 0.000000 0.000000 -0.861774
v -0.331098 -0.258242 0.000000
vn 0.000000 0.000000 -0.861774
v 0.028908 -0.699730 0.000000
vn 0.000000 0.000000 -0.861774
v -0.097640 -0.684388 0.000000
vn 0.000000 0.000000 -0.861774
v -0.301642 0.334952 0.000000
vn 0.000000 0.000000 -0.861774
v -0.165275 0.517341 0.000000
vn 0.000000 0.000000 -0.861774
v -0.447827 -0.045169 0.000000
vn 0.000000 0.000000 -0.861774
v -0.438008 0.152562 0.000000
vn 0.000000 0.000000 -0.861774
v -0.028908 0.699730 0.000000
vn 0.000000 0.000000 -0.861774
v 0.097640 0.684388 0.000000
vn 0.000000 0.000000 -0.861774
v 0.340917 0.455973 0.000000
vn 0.000000 0.000000 -0.861774
v 0.457646 0.242900 0.000000
vn 0.000000 0.000000 -0.861774
v 0.224188 0.669046 0.000000
vn 0.000000 0.000000 -0.861774
v 0.428189 -0.350294 0.000000
vn 0.000000 0.000000 -0.861774
v 0.291823 -0.532683 0.000000
vn 0.000000 0.000000 -0.861774
v 0.574375 0.029827 0.000000
vn 0.000000 0.000000 -0.861774
v 0.564556 -0.167904 0.000000
vn 0.000000 0.000000 -0.861774
v 0.155456 -0.715072 0.000000
vn 0.000000 0.000000 -0.861774
v -0.340917 -0.455973 0.000000
vn 0.000000 0.000000 -0.861774
v -0.224188 -0.669046 0.000000
vn 0.000000 0.000000 -0.861774
v -0.457646 -0.242900 0.000000
vn 0.000000 0.000000 -0.861774
v 0.019089 -0.897461 0.000000
vn 0.000000 0.000000 -0.861774
v -0.107459 -0.882119 0.000000
vn 0.000000 0.000000 -0.861774
v -0.291823 0.532683 0.000000
vn 0.000000 0.000000 -0.861774
v -0.428189 0.350294 0.000000
vn 0.000000 0.000000 -0.861774
v -0.155456 0.715072 0.000000
vn 0.000000 0.000000 -0.861774
v -0.574375 -0.029827 0.000000
vn 0.000000 0.000000 -0.861774
v -0.564556 0.167904 0.000000
vn 0.000000 0.000000 -0.861774
v -0.019089 0.897461 0.000000
vn 0.000000 0.000000 -0.861774
v 0.107459 0.882119 0.000000
vn 0.000000 0.000000 -0.861774
v 0.467465 0.440631 0.000000
vn 0.000000 0.000000 -0.861774
v 0.350736 0.653704 0.000000
vn 0.000000 0.000000 -0.861774
v 0.584194 0.227558 0.000000
vn 0.000000 0.000000 -0.861774
v 0.234007 0.866777 0.000000
vn 0.000000 0.000000 -0.861774
v 0.418371 -0.548025 0.000000
vn 0.000000 0.000000 -0.861774
v 0.554737 -0.365636 0.000000
vn 0.000000 0.000000 -0.861774
v 0.282004 -0.730414 0.000000
vn 0.000000 0.000000 -0.861774
v 0.145637 -0.912803 0.000000
vn 0.000000 0.000000 -0.861774
v -0.350736 -0.653704 0.000000
vn 0.000000 0.000000 -0.861774
v -0.467465 -0.440631 0.000000
vn 0.000000 0.000000 -0.861774
v -0.234007 -0.866777 0.000000
vn 0.000000 0.000000 -0.861774
v -0.584194 -0.227558 0.000000
vn 0.000000 0.000000 -0.861774
v -0.418371 0.548025 0.000000
vn 0.000000 0.000000 -0.861774
v -0.282004 0.730414 0.000000
vn 0.000000 0.000000 -0.861774
v -0.554737 0.365636 0.000000
vn 0.000000 0.000000 -0.861774
v -0.145637 0.912803 0.000000
vn 0.000000 0.000000 -0.861774
v 0.477284 0.638362 0.000000
vn 0.000000 0.000000 -0.861774
v 0.594013 0.425289 0.000000
vn 0.000000 0.000000 -0.861774
v 0.360555 0.851435 0.000000
vn 0.000000 0.000000 -0.861774
v 0.544918 -0.563367 0.000000
vn 0.000000 0.000000 -0.861774
v 0.408552 -0.745756 0.000000
vn 0.000000 0.000000 -0.861774
v 0.272185 -0.928145 0.000000
vn 0.000000 0.000000 -0.861774
v -0.477284 -0.638362 0.000000
vn 0.000000 0.000000 -0.861774
v -0.360555 -0.851435 0.000000
vn 0.000000 0.000000 -0.861774
v -0.594013 -0.425289 0.000000
vn 0.000000 0.000000 -0.861774
v -0.408552 0.745756 0.000000
vn 0.000000 0.000000 -0.861774
v -0.544918 0.563367 0.000000
vn 0.000000 0.000000 -0.861774
v -0.272185 0.928145 0.000000
vn 0.000000 0.000000 -0.861774
v 0.603832 0.623020 0.000000
vn 0.000000 0.000000 -0.861774
v 0.487103 0.836093 0.000000
vn 0.000000 0.000000 -0.861774
v 0.535100 -0.761098 0.000000
vn 0.000000 0.000000 -0.861774
v 0.398733 -0.943487 0.000000
vn 0.000000 0.000000 -0.861774
v -0.487103 -0.836093 0.000000
vn 0.000000 0.000000 -0.861774
v -0.603832 -0.623020 0.000000
vn 0.000000 0.000000 -0.861774
v -0.535100 0.761098 0.000000
vn 0.000000 0.000000 -0.861774
v -0.398733 0.943487 0.000000
vn 0.000000 0.000000 -0.861774
v 0.613651 0.820751 0.000000
vn 0.000000 0.000000 -0.861774
v 0.525281 -0.958829 0.000000
vn 0.000000 0.000000 -0.861774
v -0.613651 -0.820751 0.000000
vn 0.000000 0.000000 -0.861774
v -0.525281 0.958829 0.000000
# 100 vertices, 0 vertices normals

f 2//2 3//3 4//4 1//1
f 6//6 4//4 3//3 5//5
f 4//4 7//7 8//8 1//1
f 1//1 9//9 10//10 2//2
f 12//12 3//3 2//2 11//11
f 3//3 12//12 13//13 5//5
f 5//5 14//14 15//15 6//6
f 7//7 4//4 6//6 16//16
f 9//9 1//1 8//8 17//17
f 19//19 8//8 7//7 18//18
f 11//11 2//2 10//10 20//20
f 22//22 10//10 9//9 21//21
f 11//11 23//23 24//24 12//12
f 14//14 5//5 13//13 25//25
f 26//26 13//13 12//12 24//24
f 16//16 6//6 15//15 27//27
f 29//29 15//15 14//14 28//28
f 16//16 30//30 18//18 7//7
f 8//8 19//19 31//31 17//17
f 17//17 32//32 21//21 9//9
f 18//18 33//33 34//34 19//19
f 10//10 22//22 35//35 20//20
f 20//20 36//36 23//23 11//11
f 21//21 37//37 38//38 22//22
f 40//40 24//24 23//23 39//39
f 13//13 26//26 41//41 25//25
f 25//25 42//42 28//28 14//14
f 24//24 40//40 43//43 26//26
f 15//15 29//29 44//44 27//27
f 27//27 45//45 30//30 16//16
f 28//28 46//46 47//47 29//29
f 33//33 18//18 30//30 48//48
f 32//32 17//17 31//31 49//49
f 50//50 31//31 19//19 34//34
f 37//37 21//21 32//32 51//51
f 53//53 34//34 33//33 52//52
f 36//36 20//20 35//35 54//54
f 55//55 35//35 22//22 38//38
f 39//39 23//23 36//36 56//56
f 58//58 38//38 37//37 57//57
f 39//39 59//59 60//60 40//40
f 42//42 25//25 41//41 61//61
f 62//62 41//41 26//26 43//43
f 46//46 28//28 42//42 63//63
f 64//64 43//43 40//40 60//60
f 45//45 27//27 44//44 65//65
f 66//66 44//44 29//29 47//47
f 48//48 30//30 45//45 67//67
f 48//48 68//68 52//52 33//33
f 31//31 50//50 69//69 49//49
f 49//49 70//70 51//51 32//32
f 34//34 53//53 71//71 50//50
f 51//51 72//72 57//57 37//37
f 35//35 55//55 73//73 54//54
f 54//54 74//74 56//56 36//36
f 38//38 58//58 75//75 55//55
f 56//56 76//76 59//59 39//39
f 41//41 62//62 77//77 61//61
f 61//61 78//78 63//63 42//42
f 43//43 64//64 79//79 62//62
f 44//44 66//66 80//80 65//65
f 65//65 81//81 67//67 45//45
f 67//67 82//82 68//68 48//48
f 70//70 49//49 69//69 83//83
f 84//84 69//69 50//50 71//71
f 72//72 51//51 70//70 85//85
f 74//74 54//54 73//73 86//86
f 87//87 73//73 55//55 75//75
f 76//76 56//56 74//74 88//88
f 78//78 61//61 77//77 89//89
f 90//90 77//77 62//62 79//79
f 81//81 65//65 80//80 91//91
f 82//82 67//67 81//81 92//92
f 69//69 84//84 93//93 83//83
f 83//83 94//94 85//85 70//70
f 73//73 87//87 95//95 86//86
f 86//86 96//96 88//88 74//74
f 77//77 90//90 97//97 89//89
f 91//91 98//98 92//92 81//81
f 94//94 83//83 93//93 99//99
f 96//96 86//86 95//95 100//100
# 81 faces, 0 coords texture

# End of File
